#!OML:ASF X:\für Bonn\!DataBase\2005_08_10_Bjorn_Final\c3d\bjorn.ASF
:FULLY-SPECIFIED
:DEGREES
127
root -21.65 19.4629 0.746025 23.5698 -88.4395 -18.2938
lowerback -13.3191 5.60629 -6.67179
upperback 4.90685 9.49312 -8.53123
thorax 13.4645 4.21452 -3.48301
lowerneck -4.31958 -9.03135 7.22871
upperneck 23.3337 -15.2673 5.04075
head 7.88789 -6.50671 -0.748034
rclavicle 1.04958e-013 -1.65389e-013
rhumerus 29.6167 1.07099 -38.9926
rradius 72.4148
rwrist -26.6633
rhand -5.00488 5.5793
rfingers 7.12502
rthumb 20.7887 -23.3271
lclavicle 1.04958e-013 -1.65389e-013
lhumerus -20.5207 25.0263 70.8688
lradius 12.114
lwrist -47.7189
lhand -17.0977 -5.13017
lfingers 7.12502
lthumb 9.14107 24.6517
rfemur -13.0759 -14.1485 16.4322
rtibia 25.0266
rfoot -8.55365 19.4375
rtoes 1.98044
lfemur -12.104 14.1401 -16.5063
ltibia 24.1609
lfoot -9.77656 -13.6017
ltoes -2.21832
128
root -21.6482 19.4627 0.752138 23.2862 -88.4605 -18.0384
lowerback -13.338 5.56611 -6.57409
upperback 4.9514 9.4289 -8.49744
thorax 13.5355 4.19003 -3.51208
lowerneck -4.38321 -8.98386 7.37212
upperneck 23.7214 -15.3134 5.08922
head 8.02883 -6.49425 -0.775538
rclavicle 1.11319e-014 8.90555e-014
rhumerus 28.8923 0.492342 -40.2434
rradius 73.8994
rwrist -25.9896
rhand -5.86173 5.95311
rfingers 7.12502
rthumb 19.9653 -23.0412
lclavicle 1.11319e-014 8.90555e-014
lhumerus -20.541 25.5918 70.6914
lradius 11.8724
lwrist -48.7251
lhand -17.0115 -5.19761
lfingers 7.12502
lthumb 9.22429 24.5806
rfemur -13.0386 -14.0768 16.3924
rtibia 25.0133
rfoot -8.5846 19.3868
rtoes 1.94686
lfemur -12.075 14.1664 -16.5368
ltibia 24.1657
lfoot -9.78759 -13.6093
ltoes -2.15651
129
root -21.6474 19.4623 0.758253 23.2431 -88.5016 -18.0309
lowerback -13.3541 5.53026 -6.48646
upperback 4.9893 9.36964 -8.44807
thorax 13.5919 4.16673 -3.51713
lowerneck -4.38389 -8.94079 7.48187
upperneck 24.0702 -15.3568 5.16103
head 8.15045 -6.48512 -0.785438
rclavicle -1.27222e-014 -6.36111e-015
rhumerus 28.0983 -0.102436 -41.5311
rradius 75.4844
rwrist -25.2097
rhand -6.67098 6.32584
rfingers 7.12502
rthumb 19.1872 -22.7477
lclavicle -1.27222e-014 -6.36111e-015
lhumerus -20.5895 26.211 70.506
lradius 11.6162
lwrist -49.7812
lhand -16.9343 -5.32263
lfingers 7.12502
lthumb 9.29873 24.4523
rfemur -12.998 -14.0135 16.3469
rtibia 25.0002
rfoot -8.56045 19.3733
rtoes 2.13105
lfemur -12.0323 14.2133 -16.5646
ltibia 24.1711
lfoot -9.80307 -13.6171
ltoes -2.17515
130
root -21.6476 19.4618 0.764534 23.8727 -88.55 -18.6965
lowerback -13.398 5.47828 -6.38483
upperback 5.04519 9.29044 -8.3773
thorax 13.6839 4.13327 -3.50852
lowerneck -4.40263 -8.87632 7.53304
upperneck 24.4165 -15.3745 5.26406
head 8.28196 -6.46445 -0.776144
rclavicle -1.35174e-014 1.08139e-013
rhumerus 27.3451 -0.704801 -42.8181
rradius 77.1447
rwrist -24.4041
rhand -7.42869 6.72236
rfingers 7.12502
rthumb 18.4585 -22.4219
lclavicle -1.35174e-014 1.08139e-013
lhumerus -20.6281 26.7316 70.3902
lradius 11.3957
lwrist -50.6605
lhand -16.849 -5.42173
lfingers 7.12502
lthumb 9.38102 24.3495
rfemur -12.9502 -13.9108 16.3188
rtibia 24.9841
rfoot -8.61558 19.3171
rtoes 1.95919
lfemur -11.9906 14.2742 -16.578
ltibia 24.1791
lfoot -9.80709 -13.622
ltoes -2.14434
131
root -21.6479 19.46 0.770652 23.9559 -88.5979 -18.8148
lowerback -13.4395 5.42078 -6.30342
upperback 5.09763 9.20478 -8.28853
thorax 13.7629 4.09452 -3.47046
lowerneck -4.37668 -8.81598 7.54014
upperneck 24.7417 -15.3887 5.3783
head 8.40278 -6.44714 -0.752887
rclavicle -6.44062e-014 6.67916e-014
rhumerus 26.5363 -1.27747 -44.0804
rradius 78.9197
rwrist -23.7006
rhand -8.20711 7.161
rfingers 7.12502
rthumb 17.7096 -22.0525
lclavicle -6.44062e-014 6.67916e-014
lhumerus -20.7011 27.2645 70.3128
lradius 11.1976
lwrist -51.5385
lhand -16.7632 -5.44998
lfingers 7.12502
lthumb 9.46387 24.3175
rfemur -12.9008 -13.8125 16.276
rtibia 24.9685
rfoot -8.64399 19.2728
rtoes 1.96575
lfemur -11.9444 14.3283 -16.6043
ltibia 24.1867
lfoot -9.8249 -13.633
ltoes -2.13813
